<?xml version="1.0" encoding="UTF-8"?>
<svg version="1.1" xmlns="http://www.w3.org/2000/svg" width="443" height="452">
<path d="M0 0 C4.06041083 1.4308329 8.09330069 2.92784268 12.125 4.4375 C13.26710938 4.83904297 14.40921875 5.24058594 15.5859375 5.65429688 C23.49583075 8.66649459 27.1779075 11.50724835 31 19 C32.1118015 20.9461586 33.22518334 22.89141493 34.33984375 24.8359375 C35.54289005 27.01351478 36.74192085 29.19331402 37.9375 31.375 C38.59185896 32.56175854 39.24665355 33.74827696 39.90185547 34.93457031 C41.2600348 37.39455689 42.61635949 39.85555113 43.97119141 42.31738281 C47.17487058 48.13615779 50.3995152 53.94328848 53.625 59.75 C54.24455566 60.86536133 54.86411133 61.98072266 55.50244141 63.12988281 C64.80885198 79.86725833 74.21177468 96.53898903 84 113 C87.77066466 104.04050033 91.40917575 95.03258884 95 86 C95.66 86 96.32 86 97 86 C97.33 91.94 97.66 97.88 98 104 C99.15113281 103.15179688 100.30226562 102.30359375 101.48828125 101.4296875 C102.24778076 100.87007324 103.00728027 100.31045898 103.78979492 99.73388672 C105.49445 98.47779035 107.19903812 97.22160311 108.90356445 95.96533203 C113.24407838 92.76647301 117.58546336 89.56881896 121.9296875 86.375 C123.51563565 85.20834781 125.10157328 84.04168132 126.6875 82.875 C127.46512695 82.30362305 128.24275391 81.73224609 129.04394531 81.14355469 C132.94318702 78.27325693 136.82516858 75.38327168 140.6796875 72.453125 C141.41872314 71.89254395 142.15775879 71.33196289 142.91918945 70.75439453 C144.31679253 69.69190416 145.71132282 68.62535596 147.10229492 67.55419922 C151.77916201 64 151.77916201 64 154 64 C152.48406093 71.78792875 150.0210974 79.09140938 147.375 86.5625 C146.95476562 87.76197266 146.53453125 88.96144531 146.1015625 90.19726562 C145.07225134 93.13314177 144.03830116 96.06729381 143 99 C145.97930406 98.3756494 148.95844461 97.75053509 151.9375 97.125 C153.18370117 96.86396484 153.18370117 96.86396484 154.45507812 96.59765625 C156.13942469 96.24374685 157.82127679 95.87776762 159.50048828 95.50024414 C162 95 162 95 164.41748047 94.77905273 C168.06743825 94.34632578 170.22841522 93.87508603 172.71264648 91.05761719 C174.39581557 88.37449589 175.83645963 85.64695013 177.25 82.8125 C178.37157177 80.69878128 179.49399063 78.58551186 180.6171875 76.47265625 C181.45975098 74.85061279 181.45975098 74.85061279 182.31933594 73.19580078 C184.88717546 68.31302633 187.6340955 63.53701473 190.375 58.75 C193.92714972 52.48406234 197.45008627 46.20237236 200.94140625 39.90234375 C201.27462891 39.30122772 201.60785156 38.70011169 201.95117188 38.08078003 C203.57039778 35.15860169 205.18701384 32.23503951 206.80029297 29.30957031 C207.97405512 27.18751082 209.15956434 25.07189755 210.35791016 22.96362305 C211.40712814 21.07000766 212.40285965 19.14509175 213.32568359 17.18676758 C217.27795335 9.32246777 222.66253704 7.15093268 230.75 4.3125 C231.89855469 3.87228516 233.04710937 3.43207031 234.23046875 2.97851562 C240.20948643 0.74254612 240.20948643 0.74254612 243 0 C243.66 0.33 244.32 0.66 245 1 C245 45.22 245 89.44 245 135 C252.92 139.29 260.84 143.58 269 148 C269.33 148.99 269.66 149.98 270 151 C268.30598958 151.4235026 266.61197917 151.84700521 264.91796875 152.27050781 C264.20253906 152.44936523 263.48710937 152.62822266 262.75 152.8125 C257.5 154.125 252.25 155.4375 247 156.75 C246.030625 156.99234375 245.06125 157.2346875 244.0625 157.484375 C243.381875 157.65453125 242.70125 157.8246875 242 158 C242.47308594 158.40089844 242.94617188 158.80179688 243.43359375 159.21484375 C248.11902278 163.24266871 252.50543865 167.47368298 256.83984375 171.875 C258.70664364 173.71141797 260.60522345 175.39968619 262.625 177.0625 C265.87201667 179.76335949 268.50214651 182.8188673 271.22265625 186.0390625 C273.5123311 188.56525321 276.03963051 190.66854444 278.71484375 192.7734375 C279.13894531 193.17820313 279.56304687 193.58296875 280 194 C280 194.66 280 195.32 280 196 C270.29585386 195.28948448 260.65582492 194.17837674 251 193 C251.30478271 193.48952148 251.60956543 193.97904297 251.92358398 194.48339844 C258.82404913 205.57611589 265.66386759 216.70445501 272.4375 227.875 C272.79817566 228.46976135 273.15885132 229.06452271 273.53045654 229.67730713 C275.33680192 232.65636367 277.14262311 235.63573758 278.94824219 238.61523438 C287.74408924 253.12566078 296.58506627 267.60755052 305.49633789 282.04736328 C307.33503704 285.02905029 309.16813059 288.01411353 311 291 C311.59425781 291.96083496 312.18851562 292.92166992 312.80078125 293.91162109 C313.35121094 294.81090332 313.90164063 295.71018555 314.46875 296.63671875 C314.95794922 297.43166748 315.44714844 298.22661621 315.95117188 299.0456543 C317 301 317 301 317 303 C310.75354531 301.04952258 304.82425524 298.70736459 298.8828125 295.97265625 C298.03623077 295.58757904 297.18964905 295.20250183 296.31741333 294.80575562 C293.58478562 293.56196103 290.85493887 292.31218344 288.125 291.0625 C285.27740123 289.76505829 282.42903315 288.46931718 279.58056641 287.17378235 C277.69265726 286.3151113 275.80496084 285.45597238 273.91748047 284.59635925 C266.38090392 281.16581774 258.82326146 277.78624413 251.25 274.4375 C239.79788123 269.36890479 228.3893622 264.20796369 217 259 C217.28770264 260.00353516 217.57540527 261.00707031 217.87182617 262.04101562 C221.36517247 274.3536371 224.47563637 286.74889482 227.50415039 299.18310547 C228.32503231 302.55142372 229.15151337 305.91833602 229.97851562 309.28515625 C230.50293126 311.42960754 231.02703205 313.57413585 231.55078125 315.71875 C231.92098137 317.22628845 231.92098137 317.22628845 232.29866028 318.76428223 C232.52277084 319.68704956 232.74688141 320.60981689 232.9777832 321.56054688 C233.17588089 322.3722937 233.37397858 323.18404053 233.57807922 324.02038574 C234 326 234 326 234 328 C229.11812208 326.4258052 225.56040421 323.5980855 221.5625 320.5 C220.14817663 319.42050946 218.73278951 318.34241136 217.31640625 317.265625 C216.24543701 316.45061523 216.24543701 316.45061523 215.15283203 315.61914062 C209.85141453 311.63195523 204.41255817 307.83389537 199 304 C195.04 311.92 195.04 311.92 191 320 C186.13430402 318.05372161 183.13255363 316.07915761 179 313 C178.351521 314.10118164 178.351521 314.10118164 177.68994141 315.22460938 C169.61962256 328.91735753 161.540951 342.59317066 153 356 C150.10772643 354.63122856 148.25282299 353.25282299 146 351 C145.34 351 144.68 351 144 351 C142.24816307 353.34186533 140.61202976 355.68906857 139 358.125 C138.0154804 359.58671778 137.02977703 361.04763884 136.04296875 362.5078125 C135.54071777 363.25321289 135.0384668 363.99861328 134.52099609 364.76660156 C132.1717189 368.21623041 129.74754994 371.61060189 127.3125 375 C126.87873047 375.60473145 126.44496094 376.20946289 125.99804688 376.83251953 C124.99996422 378.22258978 124.00019219 379.61144685 123 381 C120.15643613 380.66411229 119.16849051 380.19472384 117.26416016 377.99389648 C116.69487793 377.12837158 116.1255957 376.26284668 115.5390625 375.37109375 C114.90226563 374.41783203 114.26546875 373.46457031 113.609375 372.48242188 C112.62710938 370.97518555 112.62710938 370.97518555 111.625 369.4375 C110.32727872 367.47670002 109.02782461 365.51704569 107.7265625 363.55859375 C107.10297852 362.61741699 106.47939453 361.67624023 105.83691406 360.70654297 C103.34890424 357.04066352 100.71315161 353.501475 98 350 C97.55897949 350.46019531 97.11795898 350.92039062 96.66357422 351.39453125 C93.5078125 354.6875 93.5078125 354.6875 92 356 C91.34 356 90.68 356 90 356 C88.50796196 353.71639652 87.14925869 351.43630653 85.8125 349.0625 C84.92720676 347.52261708 84.04038561 345.98361194 83.15234375 344.4453125 C82.65976074 343.58969727 82.16717773 342.73408203 81.65966797 341.85253906 C78.45609444 336.34642651 75.15937749 330.8956429 71.875 325.4375 C71.19928955 324.31287354 70.5235791 323.18824707 69.82739258 322.02954102 C68.21898726 319.35259008 66.60984512 316.67608523 65 314 C61.65074302 314.62934202 60.73288385 315.22350535 57.9375 317.5625 C55 320 55 320 52 320 C49.69 314.72 47.38 309.44 45 304 C40.14447592 306.77458519 36.23365635 309.22133549 31.9375 312.625 C27.12902245 316.3866712 22.26587118 320.0558956 17.3125 323.625 C16.41229126 324.28169678 16.41229126 324.28169678 15.49389648 324.95166016 C11.23690156 328 11.23690156 328 9 328 C11.90753211 314.55171929 15.09346391 301.17878547 18.3737793 287.81689453 C19.1996861 284.45032693 20.02087756 281.08263059 20.84179688 277.71484375 C21.36690812 275.57024407 21.89228834 273.42571023 22.41796875 271.28125 C22.78513252 269.77371155 22.78513252 269.77371155 23.15971375 268.23571777 C23.38697647 267.31295044 23.6142392 266.39018311 23.84838867 265.43945312 C24.04728195 264.6277063 24.24617523 263.81595947 24.45109558 262.97961426 C25 261 25 261 26 259 C25.04975952 259.44931885 25.04975952 259.44931885 24.08032227 259.90771484 C6.93734404 267.99085395 -10.34382855 275.71993395 -27.71289062 283.30371094 C-35.82490453 286.84660289 -43.93100362 290.39903776 -52 294.0390625 C-52.68667252 294.34865906 -53.37334503 294.65825562 -54.08082581 294.97723389 C-57.25563923 296.41012258 -60.42796058 297.84826097 -63.59741211 299.29296875 C-65.23335327 300.03353516 -65.23335327 300.03353516 -66.90234375 300.7890625 C-67.84585693 301.21912598 -68.78937012 301.64918945 -69.76147461 302.09228516 C-72 303 -72 303 -74 303 C-72.71974083 299.61877403 -71.2601834 296.54654545 -69.41796875 293.4375 C-68.90524414 292.5697998 -68.39251953 291.70209961 -67.86425781 290.80810547 C-67.31092773 289.88143066 -66.75759766 288.95475586 -66.1875 288 C-65.60709961 287.02305176 -65.02669922 286.04610352 -64.42871094 285.03955078 C-60.08223795 277.74963971 -55.64241536 270.52077043 -51.15673828 263.31591797 C-46.5738988 255.9499115 -42.05963546 248.54347527 -37.5625 241.125 C-37.02420563 240.23734451 -37.02420563 240.23734451 -36.47503662 239.33175659 C-34.67999548 236.37168073 -32.8854569 233.4113007 -31.09130859 230.45068359 C-27.85544853 225.1111865 -24.61686452 219.77335382 -21.375 214.4375 C-20.83174072 213.54111816 -20.28848145 212.64473633 -19.72875977 211.72119141 C-15.90292479 205.42656102 -11.9749364 199.20146503 -8 193 C-9.08796875 193.13277344 -10.1759375 193.26554688 -11.296875 193.40234375 C-19.85485104 194.43488322 -28.40085425 195.3703901 -37 196 C-35.43306739 192.03227006 -32.85724066 189.84621 -29.6875 187.0625 C-26.00177091 183.80920297 -22.44750621 180.50496465 -19 177 C-16.69043135 174.66375143 -14.3767111 172.33164864 -12.0625 170 C-11.46759766 169.39671875 -10.87269531 168.7934375 -10.25976562 168.171875 C-9.67001953 167.57890625 -9.08027344 166.9859375 -8.47265625 166.375 C-7.94937744 165.84648437 -7.42609863 165.31796875 -6.88696289 164.7734375 C-4.36174001 162.40013966 -1.66222684 160.21852237 1 158 C-12.86 154.535 -12.86 154.535 -27 151 C-27 150.34 -27 149.68 -27 149 C-23.47928939 147.0007529 -19.95548996 145.00707831 -16.42871094 143.01855469 C-15.22895097 142.34105082 -14.03005184 141.66202019 -12.83203125 140.98144531 C-11.11163831 140.0044672 -9.38789591 139.03339468 -7.6640625 138.0625 C-6.62717285 137.47597656 -5.5902832 136.88945312 -4.52197266 136.28515625 C-2 135 -2 135 0 135 C-0.33 134.34 -0.66 133.68 -1 133 C-1.09534463 131.25375185 -1.12630408 129.5038386 -1.12698364 127.75498962 C-1.13121338 126.08703087 -1.13121338 126.08703087 -1.13552856 124.38537598 C-1.13249222 122.54707214 -1.13249222 122.54707214 -1.12939453 120.67163086 C-1.13202301 118.74239525 -1.13202301 118.74239525 -1.13470459 116.77418518 C-1.13927274 113.24128175 -1.13749201 109.70840745 -1.1343255 106.17550349 C-1.13179926 102.48439755 -1.13414013 98.79329415 -1.13571167 95.10218811 C-1.13753236 88.90397696 -1.13512944 82.70577771 -1.13037109 76.50756836 C-1.12492627 69.33209052 -1.12669313 62.15664108 -1.1321975 54.98116392 C-1.13672862 48.82913943 -1.13737925 42.67712352 -1.13475883 36.52509791 C-1.13319636 32.84688098 -1.13300152 29.16867743 -1.13629532 25.49046135 C-1.13970787 21.39328185 -1.13498433 17.2961517 -1.12939453 13.19897461 C-1.13141876 11.97141449 -1.13344299 10.74385437 -1.13552856 9.47909546 C-1.13270874 8.36994278 -1.12988892 7.2607901 -1.12698364 6.11802673 C-1.1264181 4.66318579 -1.1264181 4.66318579 -1.12584114 3.17895412 C-1 1 -1 1 0 0 Z " fill="#C6C8CF" transform="translate(100,35)"/>
<path d="M0 0 C2.79216047 2.63092356 4.86748413 5.14239291 6.77734375 8.46484375 C7.53712524 9.77183228 7.53712524 9.77183228 8.31225586 11.10522461 C8.84858643 12.03987549 9.38491699 12.97452637 9.9375 13.9375 C11.10233121 15.93856955 12.26904528 17.93854411 13.4375 19.9375 C14.03046875 20.95199219 14.6234375 21.96648437 15.234375 23.01171875 C17.90295017 27.52822318 20.66257349 31.98578947 23.4375 36.4375 C28.1048858 43.93302322 32.72796624 51.45348281 37.3125 59 C42.18271295 67.01601868 47.06883444 75.02131286 52 83 C47.73732071 84.4208931 45.06976546 82.56273154 41.1796875 80.79296875 C40.38463806 80.44065186 39.58958862 80.08833496 38.77044678 79.7253418 C36.13457632 78.55494445 33.50492766 77.37118319 30.875 76.1875 C29.04260267 75.37114599 27.20975099 74.55581111 25.37646484 73.74145508 C21.53894802 72.03594057 17.70346716 70.32595509 13.86914062 68.61328125 C8.10499922 66.04228739 2.32826571 63.50068096 -3.453125 60.96875 C-4.37523773 60.56489578 -5.29735046 60.16104156 -6.24740601 59.74494934 C-8.06947598 58.9472225 -9.8916083 58.14963805 -11.71380615 57.35220337 C-34.13147691 47.54084119 -34.13147691 47.54084119 -44 43 C-43.74452393 43.85803223 -43.48904785 44.71606445 -43.22583008 45.60009766 C-40.62585069 54.38901487 -38.45564528 63.25214359 -36.37109375 72.17578125 C-35.3913225 76.36786977 -34.3781779 80.55056803 -33.34765625 84.73046875 C-33.07163574 85.85670654 -32.79561523 86.98294434 -32.51123047 88.14331055 C-31.97156377 90.34244436 -31.42776939 92.54057029 -30.87939453 94.73754883 C-30.63431152 95.74197021 -30.38922852 96.7463916 -30.13671875 97.78125 C-29.91717529 98.66876953 -29.69763184 99.55628906 -29.47143555 100.47070312 C-28.99252051 103.04012818 -28.91479028 105.39275814 -29 108 C-31.84082004 106.64483009 -34.42139 105.12215438 -37.01953125 103.34765625 C-37.7873291 102.82373291 -38.55512695 102.29980957 -39.34619141 101.76000977 C-40.16007324 101.19983154 -40.97395508 100.63965332 -41.8125 100.0625 C-42.65474121 99.48491943 -43.49698242 98.90733887 -44.36474609 98.31225586 C-50.31219247 94.21376527 -56.16342841 90.00081458 -61.96435547 85.69824219 C-66.54244095 82.30866162 -71.20607041 79.07902795 -76 76 C-78.16362415 78.16362415 -78.64127802 79.41057039 -79.60400391 82.26611328 C-79.90830322 83.15919189 -80.21260254 84.05227051 -80.52612305 84.97241211 C-80.83976807 85.91221924 -81.15341309 86.85202637 -81.4765625 87.8203125 C-81.76942139 88.68325928 -82.06228027 89.54620605 -82.36401367 90.43530273 C-83.45746924 93.66302053 -84.54061254 96.89422439 -85.625 100.125 C-89.275625 110.953125 -89.275625 110.953125 -93 122 C-116.1 122 -139.2 122 -163 122 C-165.47513938 116.43093639 -167.80389993 111.06281485 -169.76171875 105.33203125 C-169.99784378 104.64872238 -170.23396881 103.96541351 -170.47724915 103.26139832 C-170.96901829 101.83454254 -171.45876968 100.4069898 -171.9465332 98.97875977 C-172.69023918 96.80449185 -173.44335998 94.63364004 -174.19726562 92.46289062 C-174.67765054 91.065299 -175.15748761 89.66751892 -175.63671875 88.26953125 C-175.85962082 87.62877151 -176.08252289 86.98801178 -176.31217957 86.32783508 C-177.58539607 82.57308846 -178.45660211 78.9265487 -179 75 C-188.60944424 81.503345 -198.17080791 88.05977211 -207.5625 94.875 C-208.30870605 95.41624512 -209.05491211 95.95749023 -209.82373047 96.51513672 C-211.24092342 97.54383154 -212.65792621 98.57278841 -214.07470703 99.60205078 C-216.70973319 101.51533506 -219.34860889 103.42190979 -222 105.3125 C-222.7425 105.84488281 -223.485 106.37726563 -224.25 106.92578125 C-226 108 -226 108 -228 108 C-226.67862131 100.25654938 -225.04614542 92.63123836 -223.1875 85 C-222.92614258 83.91783203 -222.66478516 82.83566406 -222.39550781 81.72070312 C-220.57107625 74.21510224 -218.66483043 66.73389526 -216.64916992 59.27734375 C-215.28603271 54.21409615 -214.10029474 49.12671389 -213 44 C-227.85756538 50.05143801 -242.56961911 56.40817716 -257.25 62.875 C-281.72014321 73.64943503 -281.72014321 73.64943503 -292.61975098 78.34185791 C-294.39827602 79.10810111 -296.17523127 79.8779847 -297.95214844 80.64794922 C-298.99790039 81.0967041 -300.04365234 81.54545898 -301.12109375 82.0078125 C-302.0227124 82.39598145 -302.92433105 82.78415039 -303.85327148 83.18408203 C-306 84 -306 84 -308 84 C-306.25380498 78.93501327 -303.45666566 74.55277834 -300.6875 70 C-299.88735474 68.67548828 -299.88735474 68.67548828 -299.07104492 67.32421875 C-294.83816571 60.33511794 -290.54109708 53.38623449 -286.22509766 46.44824219 C-282.98920765 41.23896774 -279.78501636 36.01176253 -276.609375 30.765625 C-276.04418404 29.83224304 -276.04418404 29.83224304 -275.46757507 28.88000488 C-273.61247565 25.81505155 -271.76019313 22.74843471 -269.91137695 19.6796875 C-266.0848571 13.34938421 -262.1793711 7.10396406 -258 1 C-256.90821089 4.27536732 -257.06957152 5.04413619 -257.99609375 8.23046875 C-258.22490234 9.03291016 -258.45371094 9.83535156 -258.68945312 10.66210938 C-259.05973633 11.91217773 -259.05973633 11.91217773 -259.4375 13.1875 C-259.68048828 14.03248047 -259.92347656 14.87746094 -260.17382812 15.74804688 C-260.77493493 17.8342411 -261.38647834 19.91742301 -262 22 C-261.67 22.33 -261.34 22.66 -261 23 C-250.11 17.39 -239.22 11.78 -228 6 C-226.72491183 9.82526452 -227.50392439 11.47229439 -228.65234375 15.3125 C-229.01650391 16.55257812 -229.38066406 17.79265625 -229.75585938 19.0703125 C-230.14917375 20.38037835 -230.54306032 21.69027253 -230.9375 23 C-231.70181734 25.56101696 -232.45933954 28.12384903 -233.21484375 30.6875 C-233.55636475 31.82574219 -233.89788574 32.96398437 -234.24975586 34.13671875 C-235.12673299 36.99034879 -235.12673299 36.99034879 -235 40 C-234.30777344 39.66379639 -233.61554688 39.32759277 -232.90234375 38.98120117 C-228.3747183 36.78487035 -223.84724897 34.5888873 -219.30493164 32.4230957 C-218.0483319 31.82374713 -216.79174017 31.22438175 -215.53515625 30.625 C-214.90231216 30.3233342 -214.26946808 30.0216684 -213.6174469 29.71086121 C-209.5453677 27.76218804 -205.51495406 25.74444102 -201.49609375 23.6875 C-189.61846744 17.72695026 -179.40527582 13.42206234 -166 16 C-163.56843862 16.97562648 -161.83643021 17.97665045 -159.8125 19.62109375 C-156.32772682 22.27222507 -152.06787295 23.47454765 -148 25 C-146.35 22.03 -144.7 19.06 -143 16 C-141.47375 16.474375 -139.9475 16.94875 -138.375 17.4375 C-136.58363078 17.95935546 -134.79198693 18.48026965 -133 19 C-132.01 19.309375 -131.02 19.61875 -130 19.9375 C-125.93282222 20.02223287 -123.00774252 18.53637652 -119.3671875 16.8125 C-116.67649963 15.88896357 -115.57434787 15.82237278 -113 17 C-110.90272446 19.58275599 -109 22.61446534 -109 26 C-106.20501336 24.71543092 -103.41463357 23.42114807 -100.625 22.125 C-99.8309375 21.76019531 -99.036875 21.39539063 -98.21875 21.01953125 C-97.45820313 20.66503906 -96.69765625 20.31054688 -95.9140625 19.9453125 C-95.2123291 19.62062988 -94.5105957 19.29594727 -93.78759766 18.96142578 C-91.82403992 18.01591727 -91.82403992 18.01591727 -90 16 C-74.25456043 12.77363385 -62.07585071 20.06156271 -48.49658203 27.203125 C-42.85741723 30.10106195 -37.09037702 32.7052819 -31.3125 35.3125 C-29.3085023 36.22505962 -27.30458677 37.13779971 -25.30078125 38.05078125 C-23.86736922 38.70092164 -22.43385231 39.35083121 -21 40 C-21.24758057 39.1121582 -21.49516113 38.22431641 -21.75024414 37.30957031 C-22.66559405 34.00921457 -23.57215933 30.70670305 -24.47290039 27.40234375 C-24.8642681 25.97364902 -25.25909686 24.54589765 -25.6574707 23.11914062 C-26.23003632 21.06619624 -26.7900019 19.01016279 -27.34765625 16.953125 C-27.68804932 15.71723633 -28.02844238 14.48134766 -28.37915039 13.20800781 C-28.95179622 10.24907496 -29.06458736 8.76249865 -28 6 C-24.28195865 7.91864277 -20.56496256 9.83929188 -16.84887695 11.76171875 C-15.58743612 12.41394924 -14.32572283 13.0656531 -13.0637207 13.71679688 C-0.15902975 20.37596466 -0.15902975 20.37596466 6 24 C5.72736328 23.06933716 5.72736328 23.06933716 5.44921875 22.11987305 C4.62866731 19.31027335 3.81426841 16.49892674 3 13.6875 C2.71382813 12.71103516 2.42765625 11.73457031 2.1328125 10.72851562 C1.86210937 9.79072266 1.59140625 8.85292969 1.3125 7.88671875 C1.06113281 7.02264404 0.80976563 6.15856934 0.55078125 5.26831055 C0 3 0 3 0 0 Z " fill="#EAEBEF" transform="translate(350,235)"/>
<path d="M0 0 C-1.65243391 4.82510702 -4.3094757 8.81305043 -7.0625 13.0625 C-12.24242405 21.15912712 -17.27696212 29.33774112 -22.25 37.5625 C-23.70918142 39.97423335 -25.1688138 42.38569309 -26.62890625 44.796875 C-27.17414948 45.69729523 -27.17414948 45.69729523 -27.73040771 46.61590576 C-31.51923356 52.86674194 -35.35071382 59.09098781 -39.1875 65.3125 C-47.52457441 78.83408625 -55.83543021 92.37333453 -64 106 C-62.91509277 105.52280518 -61.83018555 105.04561035 -60.71240234 104.55395508 C-21.42548481 87.27658317 -21.42548481 87.27658317 -3.26806641 79.4440918 C2.46160238 76.97218086 8.18160016 74.48226238 13.8828125 71.9453125 C14.96030762 71.46835937 16.03780273 70.99140625 17.14794922 70.5 C19.16026819 69.60802924 21.1698948 68.70994985 23.17626953 67.8046875 C24.05138184 67.41796875 24.92649414 67.03125 25.828125 66.6328125 C26.5902832 66.29137207 27.35244141 65.94993164 28.13769531 65.59814453 C30 65 30 65 32 66 C31.6757605 67.28910278 31.6757605 67.28910278 31.3449707 68.60424805 C30.3328073 72.63166369 29.32208852 76.65943821 28.3125 80.6875 C28.13014801 81.41496429 27.94779602 82.14242859 27.75991821 82.89193726 C25.30546819 92.69147206 22.90670252 102.50129061 20.59423828 112.33544922 C19.19446378 118.2611208 17.68562014 124.1482943 16 130 C23.24905846 125.63827838 29.991532 120.82397757 36.71582031 115.70629883 C43.46283431 110.59490037 50.42386234 105.82396582 57.43554688 101.08544922 C58.76396203 100.16376792 60.05128935 99.18331046 61.328125 98.19140625 C63 97 63 97 65 97 C65.40726318 98.18420532 65.40726318 98.18420532 65.82275391 99.39233398 C66.86225603 102.4138407 67.90237607 105.4351339 68.94287109 108.45629883 C69.6016903 110.36979841 70.25984178 112.28352785 70.91796875 114.19726562 C74.23132585 123.81589184 77.61385728 133.40592896 81 143 C115.65 143.495 115.65 143.495 151 144 C151.33 142.35 151.66 140.7 152 139 C152.42924592 137.55342554 152.88550437 136.11462144 153.36694336 134.68457031 C153.64070297 133.86732483 153.91446259 133.05007935 154.19651794 132.20806885 C154.49131546 131.34018738 154.78611298 130.47230591 155.08984375 129.578125 C155.39443008 128.67753357 155.69901642 127.77694214 156.01283264 126.84906006 C156.65585443 124.95234171 157.30062157 123.05621428 157.94702148 121.16064453 C158.93785497 118.24895689 159.91732525 115.33359977 160.89648438 112.41796875 C161.52274354 110.57528484 162.14967335 108.73282868 162.77734375 106.890625 C163.07011703 106.01464661 163.36289032 105.13866821 163.66453552 104.23614502 C163.9414473 103.43150818 164.21835907 102.62687134 164.50366211 101.79785156 C164.74491318 101.0867926 164.98616425 100.37573364 165.23472595 99.64312744 C166 98 166 98 168 97 C177.18878666 103.24687268 186.29277377 109.59115374 195.26708984 116.14331055 C201.76641717 120.87610339 208.37831574 125.44093307 215 130 C213.62767938 124.16603312 212.252253 118.33280438 210.875 112.5 C210.56986984 111.2069545 210.56986984 111.2069545 210.25857544 109.88778687 C207.49595357 98.18994425 204.68519862 86.50879832 201.67724609 74.87109375 C201.45246582 73.99195313 201.22768555 73.1128125 200.99609375 72.20703125 C200.70496704 71.08518433 200.70496704 71.08518433 200.40795898 69.94067383 C200 68 200 68 200 65 C204.89103379 66.53117716 209.50787347 68.45930739 214.18359375 70.53515625 C214.97995743 70.88605316 215.77632111 71.23695007 216.59681702 71.59848022 C218.3152086 72.35592989 220.03308235 73.11455523 221.75048828 73.87423706 C224.46785693 75.07592459 227.18679724 76.27398423 229.90625 77.47094727 C233.69290915 79.13768534 237.47920859 80.80523489 241.26513672 82.47363281 C249.49454225 86.09944012 257.72581211 89.72089442 265.96414185 93.3263855 C267.64065213 94.06096716 269.31650713 94.79704635 270.9916687 95.53469849 C273.33660019 96.56718042 275.68365953 97.59467484 278.03125 98.62109375 C278.70777115 98.9203476 279.3842923 99.21960144 280.08131409 99.52792358 C284.96341862 101.65344869 289.92721388 103.38539412 295 105 C289.70197797 96.27015085 284.40232342 87.54129446 279.10125732 78.81329346 C278.09358216 77.15408926 277.08608843 75.49477487 276.07861328 73.83544922 C258.64244832 44.97571557 258.64244832 44.97571557 240.54296875 16.53198242 C237.05248522 11.1749845 233.91502867 5.69476065 231 0 C235.41932463 0.46157391 239.83404566 0.94207981 244.24609375 1.46875 C246.9844465 1.79275151 249.65177189 2.02986355 252.41015625 2.15625 C262.04719627 2.88259487 267.86641087 9.03540848 274 16 C274 16.66 274 17.32 274 18 C264.29585386 17.28948448 254.65582492 16.17837674 245 15 C245.30478271 15.48952148 245.60956543 15.97904297 245.92358398 16.48339844 C252.82404913 27.57611589 259.66386759 38.70445501 266.4375 49.875 C266.79817566 50.46976135 267.15885132 51.06452271 267.53045654 51.67730713 C269.33680192 54.65636367 271.14262311 57.63573758 272.94824219 60.61523438 C281.74408924 75.12566078 290.58506627 89.60755052 299.49633789 104.04736328 C301.33503704 107.02905029 303.16813059 110.01411353 305 113 C305.59425781 113.96083496 306.18851562 114.92166992 306.80078125 115.91162109 C307.62642578 117.26054443 307.62642578 117.26054443 308.46875 118.63671875 C308.95794922 119.43166748 309.44714844 120.22661621 309.95117188 121.0456543 C311 123 311 123 311 125 C304.75354531 123.04952258 298.82425524 120.70736459 292.8828125 117.97265625 C292.03623077 117.58757904 291.18964905 117.20250183 290.31741333 116.80575562 C287.58478562 115.56196103 284.85493887 114.31218344 282.125 113.0625 C279.27740123 111.76505829 276.42903315 110.46931718 273.58056641 109.17378235 C271.69265726 108.3151113 269.80496084 107.45597238 267.91748047 106.59635925 C260.38090392 103.16581774 252.82326146 99.78624413 245.25 96.4375 C233.79788123 91.36890479 222.3893622 86.20796369 211 81 C211.28770264 82.00353516 211.57540527 83.00707031 211.87182617 84.04101562 C215.36517247 96.3536371 218.47563637 108.74889482 221.50415039 121.18310547 C222.32503231 124.55142372 223.15151337 127.91833602 223.97851562 131.28515625 C224.50293126 133.42960754 225.02703205 135.57413585 225.55078125 137.71875 C225.92098137 139.22628845 225.92098137 139.22628845 226.29866028 140.76428223 C226.52277084 141.68704956 226.74688141 142.60981689 226.9777832 143.56054688 C227.17588089 144.3722937 227.37397858 145.18404053 227.57807922 146.02038574 C228 148 228 148 228 150 C223.11812208 148.4258052 219.56040421 145.5980855 215.5625 142.5 C214.14817663 141.42050946 212.73278951 140.34241136 211.31640625 139.265625 C210.24543701 138.45061523 210.24543701 138.45061523 209.15283203 137.61914062 C203.85141453 133.63195523 198.41255817 129.83389537 193 126 C190.36 131.28 187.72 136.56 185 142 C180.13430402 140.05372161 177.13255363 138.07915761 173 135 C172.56768066 135.73412109 172.13536133 136.46824219 171.68994141 137.22460938 C163.61962256 150.91735753 155.540951 164.59317066 147 178 C144.10772643 176.63122856 142.25282299 175.25282299 140 173 C139.34 173 138.68 173 138 173 C136.24816307 175.34186533 134.61202976 177.68906857 133 180.125 C132.0154804 181.58671778 131.02977703 183.04763884 130.04296875 184.5078125 C129.54071777 185.25321289 129.0384668 185.99861328 128.52099609 186.76660156 C126.1717189 190.21623041 123.74754994 193.61060189 121.3125 197 C120.87873047 197.60473145 120.44496094 198.20946289 119.99804688 198.83251953 C118.99996422 200.22258978 118.00019219 201.61144685 117 203 C114.15643613 202.66411229 113.16849051 202.19472384 111.26416016 199.99389648 C110.69487793 199.12837158 110.1255957 198.26284668 109.5390625 197.37109375 C108.90226563 196.41783203 108.26546875 195.46457031 107.609375 194.48242188 C106.62710938 192.97518555 106.62710938 192.97518555 105.625 191.4375 C104.32727872 189.47670002 103.02782461 187.51704569 101.7265625 185.55859375 C101.10297852 184.61741699 100.47939453 183.67624023 99.83691406 182.70654297 C97.34890424 179.04066352 94.71315161 175.501475 92 172 C91.55897949 172.46019531 91.11795898 172.92039062 90.66357422 173.39453125 C87.5078125 176.6875 87.5078125 176.6875 86 178 C85.34 178 84.68 178 84 178 C82.50796196 175.71639652 81.14925869 173.43630653 79.8125 171.0625 C78.92720676 169.52261708 78.04038561 167.98361194 77.15234375 166.4453125 C76.65976074 165.58969727 76.16717773 164.73408203 75.65966797 163.85253906 C72.45609444 158.34642651 69.15937749 152.8956429 65.875 147.4375 C65.19928955 146.31287354 64.5235791 145.18824707 63.82739258 144.02954102 C62.21898726 141.35259008 60.60984512 138.67608523 59 136 C55.65074302 136.62934202 54.73288385 137.22350535 51.9375 139.5625 C49 142 49 142 46 142 C43.69 136.72 41.38 131.44 39 126 C34.14447592 128.77458519 30.23365635 131.22133549 25.9375 134.625 C21.12902245 138.3866712 16.26587118 142.0558956 11.3125 145.625 C10.41229126 146.28169678 10.41229126 146.28169678 9.49389648 146.95166016 C5.23690156 150 5.23690156 150 3 150 C5.90753211 136.55171929 9.09346391 123.17878547 12.3737793 109.81689453 C13.1996861 106.45032693 14.02087756 103.08263059 14.84179688 99.71484375 C15.36690812 97.57024407 15.89228834 95.42571023 16.41796875 93.28125 C16.6627446 92.27622437 16.90752045 91.27119873 17.15971375 90.23571777 C17.38697647 89.31295044 17.6142392 88.39018311 17.84838867 87.43945312 C18.04728195 86.6277063 18.24617523 85.81595947 18.45109558 84.97961426 C19 83 19 83 20 81 C19.36650635 81.2995459 18.7330127 81.5990918 18.08032227 81.90771484 C0.93734404 89.99085395 -16.34382855 97.71993395 -33.71289062 105.30371094 C-41.82490453 108.84660289 -49.93100362 112.39903776 -58 116.0390625 C-58.68667252 116.34865906 -59.37334503 116.65825562 -60.08082581 116.97723389 C-63.25563923 118.41012258 -66.42796058 119.84826097 -69.59741211 121.29296875 C-71.23335327 122.03353516 -71.23335327 122.03353516 -72.90234375 122.7890625 C-73.84585693 123.21912598 -74.78937012 123.64918945 -75.76147461 124.09228516 C-78 125 -78 125 -80 125 C-78.71974083 121.61877403 -77.2601834 118.54654545 -75.41796875 115.4375 C-74.90524414 114.5697998 -74.39251953 113.70209961 -73.86425781 112.80810547 C-73.31092773 111.88143066 -72.75759766 110.95475586 -72.1875 110 C-71.60709961 109.02305176 -71.02669922 108.04610352 -70.42871094 107.03955078 C-66.08223795 99.74963971 -61.64241536 92.52077043 -57.15673828 85.31591797 C-52.5738988 77.9499115 -48.05963546 70.54347527 -43.5625 63.125 C-43.20363708 62.53322968 -42.84477417 61.94145935 -42.47503662 61.33175659 C-40.67999548 58.37168073 -38.8854569 55.4113007 -37.09130859 52.45068359 C-33.85544853 47.1111865 -30.61686452 41.77335382 -27.375 36.4375 C-26.83174072 35.54111816 -26.28848145 34.64473633 -25.72875977 33.72119141 C-21.90292479 27.42656102 -17.9749364 21.20146503 -14 15 C-15.08796875 15.13277344 -16.1759375 15.26554688 -17.296875 15.40234375 C-25.85485104 16.43488322 -34.40085425 17.3703901 -43 18 C-40.33671508 11.94453112 -35.90637417 7.0287042 -30 4 C-20.5516654 1.1063955 -9.88495541 -0.37430124 0 0 Z " fill="#A7AAB1" transform="translate(106,213)"/>
<path d="M0 0 C-1.51593907 7.78792875 -3.9789026 15.09140938 -6.625 22.5625 C-7.04523438 23.76197266 -7.46546875 24.96144531 -7.8984375 26.19726562 C-8.92774866 29.13314177 -9.96169884 32.06729381 -11 35 C-9.37771484 34.65388672 -9.37771484 34.65388672 -7.72265625 34.30078125 C1.69320508 32.30117349 11.12002041 30.3700124 20.5625 28.5 C30.74350815 26.48125776 40.88201945 24.31305047 51 22 C49.62995853 25.11318978 48.09851228 27.09478285 45.59375 29.3828125 C44.60181641 30.29740234 44.60181641 30.29740234 43.58984375 31.23046875 C42.90019531 31.85566406 42.21054687 32.48085937 41.5 33.125 C40.13529299 34.37746942 38.77070436 35.63006785 37.40625 36.8828125 C36.80103516 37.43340332 36.19582031 37.98399414 35.57226562 38.55126953 C34.35507768 39.67282128 33.17034714 40.82965286 32 42 C32 42.99 32 43.98 32 45 C37.25276628 39.85228904 42.30233025 34.66129431 47 29 C48.22268799 32.66806398 47.63313577 33.7446527 46.34765625 37.32421875 C45.98349609 38.35224609 45.61933594 39.38027344 45.24414062 40.43945312 C44.65922852 42.04723633 44.65922852 42.04723633 44.0625 43.6875 C43.67642578 44.77095703 43.29035156 45.85441406 42.89257812 46.97070312 C41.9364747 49.65015346 40.97200143 52.3262844 40 55 C40.67981934 54.8570752 41.35963867 54.71415039 42.06005859 54.56689453 C42.95547363 54.38239746 43.85088867 54.19790039 44.7734375 54.0078125 C46.1025415 53.73155029 46.1025415 53.73155029 47.45849609 53.44970703 C50.34194959 52.93949365 53.07779359 52.84619966 56 53 C54.72794625 55.06708734 53.41155927 57.02779325 52 59 C51.42894531 59.804375 50.85789062 60.60875 50.26953125 61.4375 C45.30942428 67.77376439 45.30942428 67.77376439 41.76171875 68.38671875 C38.16692227 67.97074057 34.72392034 66.9291518 31.22119141 66.03027344 C28.6335886 65.71970697 27.51159472 65.60508148 25.42169189 67.21835327 C23.88629676 69.06559166 22.4431345 70.96866478 20.9921875 72.8828125 C17.00494072 77.44618935 13.68929027 80.30882124 7.56347656 81.15917969 C1.40105042 81.5453905 -4.71842362 81.22731989 -10.875 80.875 C-13.02713918 80.80463474 -15.17950159 80.74078104 -17.33203125 80.68359375 C-22.55963042 80.53070391 -27.77875034 80.2977261 -33 80 C-32.68192383 80.89307861 -32.68192383 80.89307861 -32.35742188 81.80419922 C-31.40170752 84.49332736 -30.45079852 87.18413005 -29.5 89.875 C-29.16613281 90.81214844 -28.83226562 91.74929687 -28.48828125 92.71484375 C-28.17246094 93.61074219 -27.85664063 94.50664062 -27.53125 95.4296875 C-27.23798828 96.25710449 -26.94472656 97.08452148 -26.64257812 97.93701172 C-26 100 -26 100 -26 102 C-32.61192037 99.89340526 -39.04382352 97.45786449 -45.46875 94.83984375 C-46.43026978 94.44930313 -47.39178955 94.05876251 -48.38244629 93.65638733 C-50.39654933 92.83685455 -52.41001026 92.01574207 -54.42285156 91.19311523 C-57.51606741 89.93094377 -60.61339013 88.67923159 -63.7109375 87.42773438 C-65.67213448 86.62824038 -67.63308126 85.82813232 -69.59375 85.02734375 C-70.98732727 84.46635231 -70.98732727 84.46635231 -72.40905762 83.89402771 C-73.68674011 83.36821861 -73.68674011 83.36821861 -74.99023438 82.83178711 C-75.74252319 82.52550888 -76.49481201 82.21923065 -77.26989746 81.90367126 C-79 81 -79 81 -80 79 C-79.38256836 76.85546875 -79.38256836 76.85546875 -78.33984375 74.1875 C-77.77197144 72.71108032 -77.77197144 72.71108032 -77.19262695 71.20483398 C-76.77843506 70.14723877 -76.36424316 69.08964355 -75.9375 68 C-73.06498751 60.52590602 -70.27228694 53.05801642 -67.8125 45.4375 C-65.23101437 37.47244179 -62.21469212 29.72894063 -59 22 C-58.34 22 -57.68 22 -57 22 C-56.67 27.94 -56.34 33.88 -56 40 C-54.84886719 39.15179688 -53.69773438 38.30359375 -52.51171875 37.4296875 C-51.37246948 36.59026611 -51.37246948 36.59026611 -50.21020508 35.73388672 C-48.50555 34.47779035 -46.80096188 33.22160311 -45.09643555 31.96533203 C-40.75592162 28.76647301 -36.41453664 25.56881896 -32.0703125 22.375 C-30.48436435 21.20834781 -28.89842672 20.04168132 -27.3125 18.875 C-26.14605957 18.01793457 -26.14605957 18.01793457 -24.95605469 17.14355469 C-21.05681298 14.27325693 -17.17483142 11.38327168 -13.3203125 8.453125 C-12.58127686 7.89254395 -11.84224121 7.33196289 -11.08081055 6.75439453 C-9.68320747 5.69190416 -8.28867718 4.62535596 -6.89770508 3.55419922 C-2.22083799 0 -2.22083799 0 0 0 Z " fill="#4462B9" transform="translate(254,99)"/>
<path d="M0 0 C4.06041083 1.4308329 8.09330069 2.92784268 12.125 4.4375 C13.26710938 4.83904297 14.40921875 5.24058594 15.5859375 5.65429688 C23.5106439 8.67213565 27.13576344 11.52661794 31 19 C32.15046545 20.93756441 33.30565192 22.8723312 34.46484375 24.8046875 C35.62606388 26.8260222 36.78358028 28.84948885 37.9375 30.875 C38.83952148 32.421875 38.83952148 32.421875 39.75976562 34 C40.32244141 34.98742187 40.88511719 35.97484375 41.46484375 36.9921875 C41.976521 37.88276855 42.48819824 38.77334961 43.01538086 39.69091797 C44 42 44 42 43 45 C40.93359375 46.38671875 40.93359375 46.38671875 38.4375 47.6875 C37.61121094 48.12449219 36.78492188 48.56148437 35.93359375 49.01171875 C34.97646484 49.50091797 34.97646484 49.50091797 34 50 C35.24013308 54.07265492 36.72272299 57.51643237 38.94921875 61.140625 C39.54250977 62.11572021 40.13580078 63.09081543 40.74707031 64.09545898 C41.38741211 65.13645752 42.02775391 66.17745605 42.6875 67.25 C44.05275591 69.49492941 45.41648231 71.74069432 46.77734375 73.98828125 C47.12668976 74.56445694 47.47603577 75.14063263 47.83596802 75.73426819 C52.22036625 82.98580508 56.41169255 90.34828896 60.61791992 97.70410156 C64.89456053 105.15707376 69.30390313 112.51246375 73.94042969 119.74780273 C75.01876715 121.46313366 76.01895202 123.22722909 77 125 C76.67 125.66 76.34 126.32 76 127 C73.36697424 127.66761101 70.79367075 128.211085 68.125 128.69140625 C66.92725952 128.91666237 66.92725952 128.91666237 65.70532227 129.14646912 C64.00792275 129.46396674 62.30972896 129.777242 60.61083984 130.08666992 C58.03693965 130.55576768 55.46564834 131.03739008 52.89453125 131.52148438 C51.24232706 131.8288761 49.58998706 132.13553884 47.9375 132.44140625 C47.17775879 132.58308731 46.41801758 132.72476837 45.63525391 132.8707428 C44.16183479 133.13791681 42.68559459 133.39002929 41.2068634 133.6260376 C39.68955684 133.88315166 38.18118415 134.1973893 36.68510437 134.55804443 C33.38755945 135.22097124 31.09590005 135.63596617 28.11074829 133.90364075 C26.17618492 132.13009162 24.64860375 130.3015335 23.08203125 128.1953125 C22.51748734 127.44089874 21.95294342 126.68648499 21.37129211 125.90921021 C14.44060654 115.54830889 14.86242262 103.93186123 14.6875 91.875 C14.60779196 89.57401874 14.52253406 87.27322282 14.43164062 84.97265625 C14.01760391 73.65361851 13.88457095 62.3260379 14 51 C10.53125 51.03125 10.53125 51.03125 7.0625 51.0625 C4.70833668 51.08370868 2.35313555 51.07271741 0 51 C-1.6140925 49.3859075 -1.12734318 47.63523592 -1.12939453 45.40429688 C-1.13254669 44.42658325 -1.13569885 43.44886963 -1.13894653 42.44152832 C-1.1369223 41.37801147 -1.13489807 40.31449463 -1.1328125 39.21875 C-1.13376923 38.13493042 -1.13472595 37.05111084 -1.13571167 35.93444824 C-1.13639365 33.6377761 -1.13453811 31.34110205 -1.13037109 29.04443359 C-1.12502312 25.51525572 -1.1303155 21.98620513 -1.13671875 18.45703125 C-1.13605797 16.23177055 -1.13477682 14.00650993 -1.1328125 11.78125 C-1.13483673 10.71773315 -1.13686096 9.65421631 -1.13894653 8.55847168 C-1.13579437 7.58075806 -1.13264221 6.60304443 -1.12939453 5.59570312 C-1.12859894 4.73046021 -1.12780334 3.86521729 -1.12698364 2.97375488 C-1 1 -1 1 0 0 Z " fill="#A6A9B0" transform="translate(100,35)"/>
<path d="M0 0 C0 16.17 0 32.34 0 49 C-5.35789122 49.76541303 -9.70518291 50.09289153 -15 50 C-15.04898438 51.20785156 -15.09796875 52.41570312 -15.1484375 53.66015625 C-15.38639084 59.40250587 -15.6445648 65.14388407 -15.90496826 70.88525391 C-16.00884671 73.1968662 -16.11017097 75.50858385 -16.21142578 77.8203125 C-16.40374901 82.18799068 -16.60624031 86.55512012 -16.81402588 90.92208862 C-16.89610334 92.67726021 -16.97518203 94.4325747 -17.0512085 96.1880188 C-17.16016717 98.68959976 -17.28007054 101.19044525 -17.40234375 103.69140625 C-17.43260147 104.44063354 -17.46285919 105.18986084 -17.49403381 105.96179199 C-17.93013517 114.36280252 -20.78322127 119.78000659 -25.5625 126.4375 C-26.05041016 127.18193359 -26.53832031 127.92636719 -27.04101562 128.69335938 C-28.57723025 130.82360321 -29.87369639 132.45336421 -32 134 C-37.17402393 134.64308965 -42.21109385 132.84188698 -47 131 C-43.98777134 125.65020587 -40.12365395 121.52925926 -36 117 C-40.95 117.33 -45.9 117.66 -51 118 C-49.48526781 110.01323028 -46.83197448 102.59877122 -44 95 C-44.495 94.505 -44.495 94.505 -45 94 C-45.83144531 94.91523438 -46.66289062 95.83046875 -47.51953125 96.7734375 C-48.61702125 97.97411032 -49.71468668 99.1746228 -50.8125 100.375 C-51.35970703 100.97828125 -51.90691406 101.5815625 -52.47070312 102.203125 C-53.00244141 102.78320312 -53.53417969 103.36328125 -54.08203125 103.9609375 C-54.56905518 104.49509277 -55.0560791 105.02924805 -55.55786133 105.57958984 C-57 107 -57 107 -60 109 C-59.58653942 104.02948474 -57.39734057 101.94567452 -53.875 98.5625 C-53.38016113 98.08240479 -52.88532227 97.60230957 -52.37548828 97.10766602 C-49.62023143 94.45686325 -46.79370586 91.9062387 -43.875 89.4375 C-40.99667845 87.32087701 -40.99667845 87.32087701 -40 85 C-41.11375 85.4125 -42.2275 85.825 -43.375 86.25 C-48.24519584 87.87339861 -53.18563415 89.05435187 -58.1875 90.1875 C-58.9594873 90.36635742 -59.73147461 90.54521484 -60.52685547 90.72949219 C-64.76590983 91.66663284 -68.62836483 92.20219684 -73 92 C-67.95927404 81.35498865 -62.26870578 71.19840932 -56.27685547 61.06054688 C-52.68065775 54.95151678 -49.25147963 48.79825905 -46 42.5 C-45.18904338 40.98033996 -44.3778407 39.46081121 -43.56640625 37.94140625 C-41.63191471 34.29404454 -39.88292873 30.58780955 -38.15234375 26.83984375 C-31.34693185 12.90530649 -25.14235588 6.43649957 -10.35522461 1.24584961 C-2.46455431 -1.23227715 -2.46455431 -1.23227715 0 0 Z " fill="#A6A9B0" transform="translate(345,36)"/>
<path d="M0 0 C1 2 1 2 0.47094727 4.06298828 C0.02319946 5.30411377 0.02319946 5.30411377 -0.43359375 6.5703125 C-0.75263672 7.46621094 -1.07167969 8.36210937 -1.40039062 9.28515625 C-1.91375977 10.69087891 -1.91375977 10.69087891 -2.4375 12.125 C-2.94506836 13.54232422 -2.94506836 13.54232422 -3.46289062 14.98828125 C-4.3018906 17.32802766 -5.14784292 19.66502009 -6 22 C-5.08299316 21.62713867 -4.16598633 21.25427734 -3.22119141 20.87011719 C0.22661036 19.46830449 3.67456322 18.06686375 7.12255859 16.66552734 C8.6063229 16.0624365 10.09004785 15.45924881 11.57373047 14.85595703 C12.29061035 14.56446777 13.00749023 14.27297852 13.74609375 13.97265625 C14.4562262 13.68386597 15.16635864 13.39507568 15.89801025 13.09753418 C17.30882377 12.52458743 18.72007564 11.95271885 20.1317749 11.38195801 C23.16299052 10.15633688 26.18740969 8.92096424 29.20019531 7.65039062 C30.09577148 7.27591797 30.99134766 6.90144531 31.9140625 6.515625 C32.66896973 6.19368164 33.42387695 5.87173828 34.20166016 5.54003906 C36 5 36 5 38 6 C31.07 17.385 31.07 17.385 24 29 C30.27 27.68 36.54 26.36 43 25 C39.38504823 32.22990355 33.99032481 38.78407787 27 43 C20.23957205 45.10438521 13.08901143 44.33727379 6.125 43.875 C4.2619562 43.80460465 2.39865301 43.74075623 0.53515625 43.68359375 C-3.98309364 43.53095884 -8.48860559 43.29054274 -13 43 C-12.484375 44.0725 -11.96875 45.145 -11.4375 46.25 C-10.36759718 48.71477612 -9.96427218 49.72132303 -10.3125 52.4375 C-10.539375 52.953125 -10.76625 53.46875 -11 54 C-15.40385719 52.52736171 -19.79978301 51.03371645 -24.18969727 49.52001953 C-25.68444597 49.00797028 -27.18120384 48.50174785 -28.67993164 48.00146484 C-30.83252388 47.28179647 -32.97704814 46.54156086 -35.12109375 45.796875 C-35.79401962 45.57690857 -36.4669455 45.35694214 -37.16026306 45.13031006 C-41.76111406 43.49979125 -41.76111406 43.49979125 -42.96411133 40.98291016 C-43.05982329 35.69466172 -40.29783703 30.97660417 -37 27 C-31.98118475 22.37969131 -26.25147709 18.62130967 -20.62060547 14.79638672 C-16.28818257 11.82657419 -12.05811269 8.71695073 -7.8125 5.625 C-6.2989597 4.53276885 -4.78471229 3.44151642 -3.26953125 2.3515625 C-2.63635986 1.89604004 -2.00318848 1.44051758 -1.35083008 0.97119141 C-0.90505615 0.65069824 -0.45928223 0.33020508 0 0 Z " fill="#3E4557" transform="translate(226,136)"/>
<path d="M0 0 C2.96931661 0.04066223 5.92478261 -0.01993029 8.89331055 -0.09008789 C22.39394787 -0.17128036 22.39394787 -0.17128036 27.7043457 3.29223633 C30.87773509 6.92793728 32.3905748 9.77337525 32.88354492 14.57983398 C30.86692813 20.05518307 28.53485208 25.33034213 26.03979492 30.60327148 C25.2721582 32.26036133 25.2721582 32.26036133 24.48901367 33.95092773 C20.70938378 42.05868263 20.70938378 42.05868263 19.53979492 43.22827148 C17.09149066 43.31670942 14.67158893 43.343559 12.22338867 43.32592773 C11.49233414 43.32451279 10.7612796 43.32309784 10.0080719 43.32164001 C7.6644386 43.31602557 5.32089953 43.3034707 2.97729492 43.29077148 C1.39200984 43.28575834 -0.19327673 43.28119511 -1.77856445 43.27709961 C-5.67248118 43.26605145 -9.56632713 43.2487772 -13.46020508 43.22827148 C-20.33509308 29.59429209 -20.33509308 29.59429209 -23.39770508 22.79077148 C-23.71288086 22.12368164 -24.02805664 21.4565918 -24.3527832 20.76928711 C-26.64585881 15.6516283 -26.45159088 12.96405383 -24.58496094 7.81298828 C-19.1926444 -1.48360384 -9.55932263 -0.16532052 0 0 Z " fill="#3F4657" transform="translate(218.460205078125,289.771728515625)"/>
<path d="M0 0 C0 16.17 0 32.34 0 49 C-4.95 49 -9.9 49 -15 49 C-15 38.77 -15 28.54 -15 18 C-20.09220095 26.70162781 -20.09220095 26.70162781 -25.17089844 35.41113281 C-25.8105957 36.49749023 -26.45029297 37.58384766 -27.109375 38.703125 C-28.08342285 40.36843262 -28.08342285 40.36843262 -29.07714844 42.06738281 C-31 45 -31 45 -35 49 C-38.63 47.02 -42.26 45.04 -46 43 C-43.04707447 37.33952097 -43.04707447 37.33952097 -41.57983398 34.67895508 C-39.49145385 30.88750641 -37.59206488 27.11000561 -35.8984375 23.125 C-30.82382581 12.00149511 -25.47368777 7.15283328 -13.9375 2.75 C-2.69255282 -1.34627641 -2.69255282 -1.34627641 0 0 Z " fill="#42485A" transform="translate(345,36)"/>
<path d="M0 0 C4.06041083 1.4308329 8.09330069 2.92784268 12.125 4.4375 C13.26710938 4.83904297 14.40921875 5.24058594 15.5859375 5.65429688 C23.5106439 8.67213565 27.13576344 11.52661794 31 19 C32.15046545 20.93756441 33.30565192 22.8723312 34.46484375 24.8046875 C35.62606388 26.8260222 36.78358028 28.84948885 37.9375 30.875 C38.83952148 32.421875 38.83952148 32.421875 39.75976562 34 C40.32244141 34.98742187 40.88511719 35.97484375 41.46484375 36.9921875 C41.976521 37.88276855 42.48819824 38.77334961 43.01538086 39.69091797 C44 42 44 42 43 45 C41.29296875 46.203125 41.29296875 46.203125 39.1875 47.25 C38.50042969 47.60578125 37.81335938 47.9615625 37.10546875 48.328125 C34.43933324 49.17891407 33.56815485 49.14143493 31 48 C29.45097158 45.86586233 28.1679414 43.84685952 26.890625 41.55859375 C26.33311554 40.59518822 26.33311554 40.59518822 25.76434326 39.61231995 C24.58078663 37.56073139 23.41531759 35.49949275 22.25 33.4375 C21.4503896 32.04424925 20.64962177 30.65166208 19.84765625 29.25976562 C17.88263736 25.84844401 15.94240323 22.42465199 14 19 C14 29.23 14 39.46 14 50 C9.05 50 4.1 50 -1 50 C-1.02464201 43.03996034 -1.04283222 36.07994584 -1.05493164 29.11987305 C-1.05997341 26.75007688 -1.06680665 24.38028385 -1.07543945 22.01049805 C-1.0875119 18.61245961 -1.09322971 15.21446215 -1.09765625 11.81640625 C-1.10281754 10.74975235 -1.10797882 9.68309845 -1.11329651 8.5841217 C-1.11337204 7.60318039 -1.11344757 6.62223907 -1.11352539 5.61157227 C-1.115746 4.74331314 -1.11796661 3.87505402 -1.12025452 2.98048401 C-1 1 -1 1 0 0 Z " fill="#424959" transform="translate(100,35)"/>
<path d="M0 0 C-1.43318073 3.10105743 -3.15798606 5.68085385 -5.23828125 8.38671875 C-5.88732422 9.23492187 -6.53636719 10.083125 -7.20507812 10.95703125 C-7.90052734 11.85808594 -8.59597656 12.75914062 -9.3125 13.6875 C-10.7673125 15.57652615 -12.22173396 17.46585352 -13.67578125 19.35546875 C-14.76753662 20.77351807 -14.76753662 20.77351807 -15.88134766 22.22021484 C-17.83954223 24.78947082 -19.7612696 27.38069021 -21.66796875 29.98828125 C-22.23281982 30.75245361 -22.7976709 31.51662598 -23.37963867 32.30395508 C-24.42572291 33.72169317 -25.46183344 35.1468704 -26.4855957 36.58081055 C-31.10159845 42.78179356 -36.82719944 46.26514139 -43.875 49.3125 C-44.98488281 49.80169922 -44.98488281 49.80169922 -46.1171875 50.30078125 C-48 51 -48 51 -50 51 C-54.05748428 44.97525061 -54.05748428 44.97525061 -53.81591797 40.87695312 C-52.00860678 32.28925065 -46.75591415 23.67398517 -39.77850342 18.28387451 C-33.96187473 14.56533247 -27.72339449 11.75792929 -21.4375 8.9375 C-19.57543489 8.05572542 -17.71538727 7.16967738 -15.85742188 6.27929688 C-12.49112061 4.68242478 -9.12007744 3.0996281 -5.72436523 1.56616211 C-5.05138901 1.26213974 -4.37841278 0.95811737 -3.68504333 0.6448822 C-2 0 -2 0 0 0 Z " fill="#404758" transform="translate(291,210)"/>
<path d="M0 0 C7.26473021 0.99044296 13.81395503 4.97255165 20.31860352 8.16162109 C21.96986096 8.9650229 23.62710015 9.75625438 25.2902832 10.53466797 C35.96659005 15.53344421 42.99940193 19.55871829 49 30 C50.17309324 31.61473192 51.35851184 33.22067104 52.5625 34.8125 C54.42714021 37.66788909 54.98825755 38.70056756 55.125 42.1875 C53.8097289 45.47567775 52.09955157 48.15544626 50 51 C37.72218586 46.49645752 30.8857156 41.4927418 23 31 C22.42765625 30.24074219 21.8553125 29.48148438 21.265625 28.69921875 C18.66036785 25.23810233 16.06017538 21.77335468 13.47216797 18.29931641 C9.49628099 12.96472296 5.45671459 7.7150404 1.22265625 2.58203125 C0 1 0 1 0 0 Z " fill="#414758" transform="translate(152,210)"/>
<path d="M0 0 C5.96260189 4.82082706 10.96679794 10.22494276 16 16 C16.99 13.03 17.98 10.06 19 7 C19.66 7 20.32 7 21 7 C23.42286488 10.38507271 25.49030756 13.99256322 27.61450195 17.57128906 C28.68281761 19.36712889 29.76720039 21.15250503 30.85351562 22.9375 C31.52447266 24.05898437 32.19542969 25.18046875 32.88671875 26.3359375 C33.50764404 27.37282715 34.12856934 28.4097168 34.76831055 29.47802734 C35.17476807 30.31027832 35.58122559 31.1425293 36 32 C35.505 32.99 35.505 32.99 35 34 C31.11558929 35.0640238 27.14695701 35.70112253 23.18139648 36.39697266 C21.2028971 36.74727388 19.22973204 37.12070525 17.25585938 37.49609375 C16.00998047 37.71910156 14.76410156 37.94210938 13.48046875 38.171875 C12.33473389 38.3790918 11.18899902 38.58630859 10.00854492 38.79980469 C5.9818166 39.0677522 4.21050728 38.02999303 1.21875 35.484375 C-2.36141151 31.87166656 -5.35029698 28.34551295 -8 24 C-6.27054347 24.14235457 -4.54144346 24.28904382 -2.8125 24.4375 C-1.36810547 24.55931641 -1.36810547 24.55931641 0.10546875 24.68359375 C2.78814012 24.97684123 5.35980785 25.45328372 8 26 C7.75765625 25.28344238 7.5153125 24.56688477 7.265625 23.82861328 C6.17397202 20.59511616 5.08693062 17.36008742 4 14.125 C3.6184375 12.99707031 3.236875 11.86914062 2.84375 10.70703125 C2.30234375 9.09248047 2.30234375 9.09248047 1.75 7.4453125 C1.41484375 6.45031738 1.0796875 5.45532227 0.734375 4.43017578 C0 2 0 2 0 0 Z " fill="#2A4490" transform="translate(141,128)"/>
<path d="M0 0 C3.96 1.98 7.92 3.96 12 6 C7.55727594 14.21731753 2.97932717 22.34556328 -1.6875 30.4375 C-2.35747091 31.60609168 -3.02739299 32.77471136 -3.69726562 33.94335938 C-4.33728516 35.05388672 -4.97730469 36.16441406 -5.63671875 37.30859375 C-6.21123779 38.30689209 -6.78575684 39.30519043 -7.37768555 40.33374023 C-11.24942512 46.69691071 -11.24942512 46.69691071 -14.05078125 47.828125 C-14.79714844 47.96734375 -15.54351562 48.1065625 -16.3125 48.25 C-17.05113281 48.39953125 -17.78976562 48.5490625 -18.55078125 48.703125 C-21.38485762 49.04664941 -24.14792868 49.04938652 -27 49 C-21.38534501 37.14296461 -14.94430712 25.85614197 -8.26953125 14.56640625 C-5.42670396 9.75591444 -2.68946359 4.89776138 0 0 Z " fill="#C6C8CE" transform="translate(299,79)"/>
<path d="M0 0 C1.22268799 3.66806398 0.63313577 4.7446527 -0.65234375 8.32421875 C-1.01650391 9.35224609 -1.38066406 10.38027344 -1.75585938 11.43945312 C-2.14580078 12.51130859 -2.53574219 13.58316406 -2.9375 14.6875 C-3.51661133 16.31268555 -3.51661133 16.31268555 -4.10742188 17.97070312 C-5.0635253 20.65015346 -6.02799857 23.3262844 -7 26 C-5.980271 25.78561279 -5.980271 25.78561279 -4.93994141 25.56689453 C-3.59681885 25.29014893 -3.59681885 25.29014893 -2.2265625 25.0078125 C-1.34049316 24.8236377 -0.45442383 24.63946289 0.45849609 24.44970703 C3.34194959 23.93949365 6.07779359 23.84619966 9 24 C7.72794625 26.06708734 6.41155927 28.02779325 5 30 C4.42894531 30.804375 3.85789062 31.60875 3.26953125 32.4375 C-1.69373508 38.7778003 -1.69373508 38.7778003 -5.2734375 39.38671875 C-7.60652693 39.1199662 -9.73853749 38.62594052 -12 38 C-13.35144636 37.79380506 -14.70563698 37.60437227 -16.0625 37.4375 C-17.031875 37.293125 -18.00125 37.14875 -19 37 C-17.38304525 33.36185181 -15.64561113 31.30701392 -13 28 C-18.61 27.67 -24.22 27.34 -30 27 C-26.28749204 22.49195462 -22.75832167 18.41357859 -18 15 C-16.68 15 -15.36 15 -14 15 C-11.97803497 13.50227894 -11.97803497 13.50227894 -10.125 11.4375 C-9.43664062 10.71433594 -8.74828125 9.99117187 -8.0390625 9.24609375 C-5.2893699 6.21721781 -2.61900099 3.14280119 0 0 Z " fill="#2A4591" transform="translate(301,128)"/>
<path d="M0 0 C2.31 1.98 4.62 3.96 7 6 C6.01 6.495 6.01 6.495 5 7 C4.34 6.67 3.68 6.34 3 6 C2.67 6.66 2.34 7.32 2 8 C1.34 5.36 0.68 2.72 0 0 Z " fill="#364E93" transform="translate(141,128)"/>
</svg>
